<svg width="120" height="44" viewBox="0 0 120 44" fill="none" xmlns="http://www.w3.org/2000/svg">
<g id="Company logo" clip-path="url(#clip0_2024_6534)">
<path id="Vector" d="M63.2617 12.8795C63.2617 14.2009 62.1858 15.2653 60.8502 15.2653C59.5145 15.2653 58.4386 14.2009 58.4386 12.8795C58.4386 11.5582 59.4774 10.4938 60.8502 10.4938C62.2229 10.5305 63.2617 11.5949 63.2617 12.8795ZM53.3188 17.6877C53.3188 17.9079 53.3188 18.2749 53.3188 18.2749C53.3188 18.2749 52.1687 16.8068 49.72 16.8068C45.6761 16.8068 42.5226 19.8532 42.5226 24.0741C42.5226 28.2582 45.639 31.3413 49.72 31.3413C52.2058 31.3413 53.3188 29.8365 53.3188 29.8365V30.4604C53.3188 30.7541 53.5414 30.9743 53.8382 30.9743H56.8433V17.1738C56.8433 17.1738 54.0979 17.1738 53.8382 17.1738C53.5414 17.1738 53.3188 17.4308 53.3188 17.6877ZM53.3188 26.5332C52.7623 27.3407 51.6493 28.038 50.3136 28.038C47.9392 28.038 46.1213 26.5699 46.1213 24.0741C46.1213 21.5782 47.9392 20.1101 50.3136 20.1101C51.6122 20.1101 52.7994 20.8442 53.3188 21.6149V26.5332ZM59.0693 17.1738H62.631V30.9743H59.0693V17.1738ZM112.271 16.8068C109.823 16.8068 108.673 18.2749 108.673 18.2749V10.5305H105.111V30.9743C105.111 30.9743 107.856 30.9743 108.116 30.9743C108.413 30.9743 108.635 30.7174 108.635 30.4604V29.8365C108.635 29.8365 109.786 31.3413 112.234 31.3413C116.278 31.3413 119.432 28.2582 119.432 24.0741C119.432 19.8899 116.278 16.8068 112.271 16.8068ZM111.678 28.0013C110.305 28.0013 109.229 27.304 108.673 26.4965V21.5782C109.229 20.8442 110.416 20.0734 111.678 20.0734C114.052 20.0734 115.87 21.5415 115.87 24.0374C115.87 26.5332 114.052 28.0013 111.678 28.0013ZM103.256 22.7894V31.011H99.6943V23.1932C99.6943 20.9176 98.9523 20 96.9488 20C95.8729 20 94.7599 20.5505 94.055 21.358V30.9743H90.4934V17.1738H93.313C93.6098 17.1738 93.8324 17.4308 93.8324 17.6877V18.2749C94.8712 17.2105 96.2439 16.8068 97.6166 16.8068C99.1749 16.8068 100.473 17.2472 101.512 18.1281C102.774 19.1558 103.256 20.4771 103.256 22.7894ZM81.849 16.8068C79.4004 16.8068 78.2502 18.2749 78.2502 18.2749V10.5305H74.6886V30.9743C74.6886 30.9743 77.434 30.9743 77.6937 30.9743C77.9905 30.9743 78.2131 30.7174 78.2131 30.4604V29.8365C78.2131 29.8365 79.3633 31.3413 81.8119 31.3413C85.8558 31.3413 89.0094 28.2582 89.0094 24.0741C89.0465 19.8899 85.8929 16.8068 81.849 16.8068ZM81.2554 28.0013C79.8827 28.0013 78.8068 27.304 78.2502 26.4965V21.5782C78.8068 20.8442 79.994 20.0734 81.2554 20.0734C83.6298 20.0734 85.4477 21.5415 85.4477 24.0374C85.4477 26.5332 83.6298 28.0013 81.2554 28.0013ZM71.6093 16.8068C72.6852 16.8068 73.2417 16.9903 73.2417 16.9903V20.2569C73.2417 20.2569 70.2737 19.2659 68.4186 21.358V31.011H64.857V17.1738C64.857 17.1738 67.6024 17.1738 67.8621 17.1738C68.1589 17.1738 68.3815 17.4308 68.3815 17.6877V18.2749C69.0493 17.5042 70.4963 16.8068 71.6093 16.8068ZM34.6202 29.7264C34.4347 29.2859 34.2492 28.8088 34.0637 28.4051C33.7669 27.7444 33.4701 27.1204 33.2104 26.5332L33.1733 26.4965C30.6133 20.991 27.8679 15.4121 24.9741 9.90656L24.8628 9.68634C24.566 9.13579 24.2692 8.54854 23.9724 7.96129C23.6014 7.30063 23.2304 6.60326 22.6368 5.9426C21.4495 4.47447 19.7429 3.66699 17.925 3.66699C16.07 3.66699 14.4005 4.47447 13.1762 5.86919C12.6196 6.52985 12.2115 7.22722 11.8405 7.88788C11.5437 8.47513 11.2469 9.06239 10.9501 9.61294L10.8388 9.83316C7.9821 15.3387 5.19957 20.9176 2.63964 26.4231L2.60254 26.4965C2.34284 27.0837 2.04603 27.7077 1.74923 28.3684C1.56373 28.7721 1.37823 29.2125 1.19272 29.6897C0.710419 31.0477 0.562018 32.3323 0.74752 33.6536C1.15562 36.4064 3.01064 38.7187 5.57057 39.7464C6.53518 40.1501 7.53689 40.3337 8.5757 40.3337C8.87251 40.3337 9.24351 40.297 9.54031 40.2602C10.7646 40.1134 12.026 39.7097 13.2504 39.0123C14.7715 38.1682 16.2184 36.9569 17.8508 35.1952C19.4832 36.9569 20.9672 38.1682 22.4513 39.0123C23.6756 39.7097 24.937 40.1134 26.1613 40.2602C26.4581 40.297 26.8291 40.3337 27.1259 40.3337C28.1647 40.3337 29.2035 40.1501 30.131 39.7464C32.7281 38.7187 34.546 36.3697 34.9541 33.6536C35.2509 32.369 35.1025 31.0844 34.6202 29.7264ZM17.8879 31.635C15.8845 29.1391 14.586 26.7901 14.1408 24.8081C13.9553 23.964 13.9182 23.2299 14.0295 22.5692C14.1037 21.982 14.3263 21.4681 14.6231 21.0277C15.328 20.0367 16.5152 19.4127 17.8879 19.4127C19.2606 19.4127 20.4849 20 21.1527 21.0277C21.4495 21.4681 21.6721 21.982 21.7463 22.5692C21.8576 23.2299 21.8205 24.0007 21.635 24.8081C21.1898 26.7534 19.8913 29.1024 17.8879 31.635ZM32.691 33.36C32.4313 35.2686 31.1327 36.9202 29.3148 37.6543C28.4244 38.0213 27.4598 38.1315 26.4952 38.0213C25.5677 37.9112 24.6402 37.6176 23.6756 37.0671C22.34 36.333 21.0043 35.1952 19.4461 33.5068C21.8947 30.5339 23.3788 27.8178 23.9353 25.3954C24.195 24.2576 24.2321 23.2299 24.1208 22.2756C23.9724 21.358 23.6385 20.5138 23.1191 19.7798C21.9689 18.1281 20.0397 17.1738 17.8879 17.1738C15.7361 17.1738 13.8069 18.1648 12.6567 19.7798C12.1373 20.5138 11.8034 21.358 11.655 22.2756C11.5066 23.2299 11.5437 24.2943 11.8405 25.3954C12.397 27.8178 13.9182 30.5706 16.3297 33.5435C14.8086 35.2319 13.4359 36.3697 12.1002 37.1038C11.1356 37.6543 10.2081 37.9479 9.28061 38.058C8.2789 38.1682 7.31429 38.0213 6.46098 37.691C4.64306 36.9569 3.34455 35.3053 3.08484 33.3967C2.97354 32.4791 3.04774 31.5616 3.41875 30.5339C3.53005 30.1668 3.71555 29.7998 3.90105 29.3593C4.16076 28.7721 4.45756 28.1481 4.75436 27.5242L4.79146 27.4508C7.35139 21.982 10.0968 16.4031 12.9535 10.971L13.0649 10.7507C13.3617 10.2002 13.6585 9.61294 13.9553 9.06239C14.2521 8.47513 14.586 7.92458 14.9941 7.44744C15.7732 6.56656 16.812 6.08941 17.9621 6.08941C19.1122 6.08941 20.151 6.56656 20.9301 7.44744C21.3382 7.92458 21.6721 8.47513 21.9689 9.06239C22.2658 9.61294 22.5626 10.2002 22.8594 10.7507L22.9707 10.971C25.7903 16.4398 28.5357 22.0187 31.0956 27.4875V27.5242C31.3924 28.1114 31.6521 28.7721 31.949 29.3593C32.1345 29.7998 32.32 30.1668 32.4313 30.5339C32.7281 31.4881 32.8394 32.4057 32.691 33.36Z" fill="#FF5A5F"/>
</g>
<defs>
<clipPath id="clip0_2024_6534">
<rect width="118.603" height="44" fill="white" transform="translate(0.673828)"/>
</clipPath>
</defs>
</svg>
