<svg width="20" height="20" viewBox="0 0 20 20" fill="none" xmlns="http://www.w3.org/2000/svg">
<g id="fi_6968871">
<g id="Group">
<path id="Vector" d="M8.28935 11.9344C8.28935 11.6669 8.07169 11.4492 7.80415 11.4492H7.03442V12.4196H7.80415C8.07169 12.4196 8.28935 12.202 8.28935 11.9344Z" fill="#FF8215"/>
<path id="Vector_2" d="M8.00411 7.84918H16.3806V1.17188H17.5769V0H6.80786V1.17188H8.00411V7.84918ZM10.4468 6.1548H9.27493V4.98293H10.4468V6.1548ZM10.4468 3.80129H9.27493V2.62941H10.4468V3.80129ZM12.8003 6.1548H11.6284V4.98293H12.8003V6.1548ZM12.8003 3.80129H11.6284V2.62941H12.8003V3.80129ZM15.1538 6.1548H13.982V4.98293H15.1538V6.1548ZM15.1538 3.80129H13.982V2.62941H15.1538V3.80129Z" fill="#FF8215"/>
<path id="Vector_3" d="M7.80415 13.5898H7.03442V14.5603H7.80415C8.07169 14.5603 8.28935 14.3426 8.28935 14.0751C8.28935 13.8075 8.07169 13.5898 7.80415 13.5898Z" fill="#FF8215"/>
<path id="Vector_4" d="M4.20532 9.02344V16.9897H18.8074V9.02344H4.20532ZM7.80458 15.7348H5.86298V10.2783H7.80458C8.71829 10.2783 9.46165 11.0217 9.46165 11.9354C9.46165 12.3434 9.31341 12.7175 9.06798 13.0065C9.31345 13.2956 9.46169 13.6696 9.46169 14.0777C9.46169 14.9914 8.71829 15.7348 7.80458 15.7348ZM11.4453 15.7555H10.2734V10.2601H11.4453V15.7555ZM17.1548 15.7555H15.9829V12.5927L14.8872 14.4393L13.7915 12.5927V15.7555H12.6197V10.2783H13.7809L14.8872 12.1428L15.9935 10.2783H17.1548V15.7555H17.1548Z" fill="#FF8215"/>
<path id="Vector_5" d="M3.03345 7.84793H6.83224V6.30859H1.19263V19.9988H16.9666V18.1579H3.03345V7.84793Z" fill="#FF8215"/>
<path id="Vector_6" d="M6.83224 3.29688H3.61938L1.77856 5.1377H6.83224V3.29688Z" fill="#FF8215"/>
</g>
</g>
</svg>
