<svg width="36" height="36" viewBox="0 0 36 36" fill="none" xmlns="http://www.w3.org/2000/svg">
<g id="fi_11297030">
<path id="Vector" d="M18.1772 30.7487H8.1146C8.01784 30.7486 7.92508 30.7101 7.85666 30.6417C7.78824 30.5733 7.74975 30.4805 7.74964 30.3838V24.9331C7.74975 24.8364 7.78824 24.7436 7.85666 24.6752C7.92508 24.6068 8.01784 24.5683 8.1146 24.5682H16.3612C16.556 23.1057 17.1561 21.7269 18.0937 20.5877H7.74964V11.1643C7.74964 9.59802 8.37182 8.09594 9.47932 6.98844C10.5868 5.88094 12.0889 5.25876 13.6551 5.25876C15.2214 5.25876 16.7235 5.88094 17.831 6.98844C18.9385 8.09594 19.5606 9.59802 19.5606 11.1643V19.2025C20.4359 18.5628 21.4333 18.11 22.4909 17.8721V3.10938H4.81934V32.9772H21.2526C20.063 32.4928 19.0079 31.7284 18.1772 30.7487ZM6.68111 23.7512C6.47521 23.7512 6.27394 23.6901 6.10274 23.5757C5.93154 23.4613 5.7981 23.2987 5.71931 23.1085C5.64052 22.9183 5.6199 22.709 5.66007 22.507C5.70024 22.3051 5.79939 22.1196 5.94498 21.974C6.09057 21.8284 6.27607 21.7292 6.47801 21.6891C6.67996 21.6489 6.88928 21.6695 7.0795 21.7483C7.26973 21.8271 7.43232 21.9605 7.54671 22.1317C7.6611 22.3029 7.72216 22.5042 7.72216 22.7101C7.72216 22.9862 7.61248 23.251 7.41725 23.4462C7.22203 23.6415 6.95721 23.7512 6.68111 23.7512Z" fill="#221D5E"/>
<path id="Vector_2" d="M9.00469 25.5117C8.96406 25.5117 8.92383 25.5197 8.88629 25.5353C8.84876 25.5508 8.81465 25.5736 8.78593 25.6023C8.7572 25.6311 8.73441 25.6652 8.71886 25.7027C8.70331 25.7402 8.69531 25.7805 8.69531 25.8211V29.4934C8.69531 29.5341 8.70331 29.5743 8.71886 29.6118C8.73441 29.6494 8.7572 29.6835 8.78593 29.7122C8.81465 29.7409 8.84876 29.7637 8.88629 29.7793C8.92383 29.7948 8.96406 29.8028 9.00469 29.8028H17.4885C16.7053 28.5474 16.2909 27.097 16.2925 25.6173C16.2925 25.582 16.2934 25.5469 16.2939 25.5117H9.00469Z" fill="#221D5E"/>
<path id="Vector_3" d="M13.6561 6.20312C12.3408 6.20462 11.0799 6.72776 10.1499 7.65777C9.21992 8.58777 8.69679 9.8487 8.69531 11.1639V19.3332C8.69531 19.4152 8.72791 19.4939 8.78593 19.5519C8.84395 19.6099 8.92264 19.6425 9.00469 19.6425H18.3075C18.3895 19.6425 18.4682 19.6099 18.5262 19.5519C18.5842 19.4939 18.6168 19.4152 18.6168 19.3332V11.1639C18.6154 9.8487 18.0922 8.58776 17.1622 7.65775C16.2322 6.72774 14.9713 6.20461 13.6561 6.20312ZM13.2693 19.0238H9.31406V16.6711H13.2693V19.0238ZM13.2693 15.8977H9.31406V11.8243H13.2693V15.8977ZM13.2693 11.0509H9.31687C9.34579 9.98678 9.76418 8.97029 10.4927 8.19415C11.2212 7.41801 12.2092 6.93617 13.2693 6.84002V11.0509ZM17.998 19.0238H14.0428V16.6712H17.998V19.0238ZM17.998 15.8978H14.0428V11.8243H17.998V15.8978ZM14.0428 11.0508V6.84002C15.1029 6.93619 16.0909 7.41802 16.8194 8.19415C17.5479 8.97028 17.9662 9.98675 17.9952 11.0508H14.0428Z" fill="#221D5E"/>
<path id="Vector_4" d="M24.2312 19.8438C22.8246 19.8438 21.4665 20.3573 20.4117 21.2879C19.357 22.2185 18.6783 23.5021 18.503 24.8977C18.3277 26.2933 18.668 27.7048 19.4598 28.8673C20.2516 30.0298 21.4406 30.8633 22.8035 31.2111V30.9638C22.8034 29.9128 22.4728 28.8885 21.8585 28.0357C22.2672 28.2409 22.6882 28.4209 23.119 28.5745C24.1412 28.9466 24.9634 29.1269 25.654 29.1269C25.8409 29.1276 26.0276 29.1131 26.2122 29.0835C26.3621 29.0588 26.5098 29.0219 26.6537 28.973C26.162 29.6253 25.8391 30.389 25.7138 31.1963C27.0685 30.8364 28.2459 29.9959 29.0264 28.8317C29.807 27.6675 30.1373 26.2591 29.9558 24.8692C29.7743 23.4794 29.0933 22.203 28.04 21.2783C26.9866 20.3536 25.6328 19.8437 24.2312 19.8438ZM27.8137 26.8843C27.4677 27.8349 26.9271 28.3397 26.1124 28.4729C25.4234 28.5855 24.5394 28.433 23.3306 27.9931C22.1218 27.5531 21.3467 27.1017 20.8913 26.5725C20.3527 25.9468 20.2631 25.2127 20.6092 24.262C21.0708 22.9936 22.062 22.1389 23.3111 21.9041L22.5191 24.0801C22.5052 24.1183 22.499 24.1588 22.5007 24.1994C22.5025 24.24 22.5123 24.2799 22.5294 24.3167C22.5466 24.3535 22.5708 24.3866 22.6008 24.414C22.6308 24.4415 22.6658 24.4628 22.704 24.4767L26.0709 25.7022C26.1091 25.7161 26.1497 25.7223 26.1903 25.7205C26.2309 25.7188 26.2707 25.709 26.3075 25.6918C26.3444 25.6747 26.3774 25.6504 26.4049 25.6205C26.4323 25.5905 26.4536 25.5554 26.4675 25.5173L27.2595 23.3412C28.0654 24.324 28.2753 25.6158 27.8137 26.8843Z" fill="#221D5E"/>
<path id="Vector_5" d="M23.8438 31.3736C23.9717 31.3821 24.1003 31.388 24.2304 31.388C24.3604 31.388 24.4891 31.3821 24.6172 31.3736V29.9141H23.8438V31.3736Z" fill="#221D5E"/>
<path id="Vector_6" d="M24.2311 18.2969C22.7834 18.2969 21.3681 18.7262 20.1644 19.5305C18.9606 20.3349 18.0224 21.4781 17.4683 22.8157C16.9143 24.1532 16.7693 25.6251 17.0518 27.045C17.3342 28.465 18.0314 29.7693 19.0551 30.793C20.0789 31.8167 21.3832 32.5139 22.8031 32.7963C24.2231 33.0788 25.6949 32.9338 27.0324 32.3798C28.37 31.8257 29.5132 30.8875 30.3176 29.6838C31.1219 28.48 31.5512 27.0647 31.5512 25.617C31.5491 23.6762 30.7771 21.8156 29.4048 20.4433C28.0325 19.071 26.1719 18.2991 24.2311 18.2969ZM24.2311 32.0089C22.9669 32.0088 21.7311 31.634 20.68 30.9316C19.6288 30.2292 18.8096 29.2309 18.3258 28.063C17.842 26.895 17.7154 25.6098 17.9621 24.3699C18.2087 23.13 18.8175 21.991 19.7114 21.0971C20.6054 20.2032 21.7443 19.5944 22.9842 19.3478C24.2241 19.1012 25.5093 19.2278 26.6773 19.7116C27.8453 20.1954 28.8436 21.0146 29.5459 22.0658C30.2483 23.1169 30.6231 24.3528 30.6231 25.617C30.6212 27.3116 29.9471 28.9363 28.7488 30.1346C27.5505 31.3329 25.9258 32.007 24.2311 32.0089Z" fill="#221D5E"/>
</g>
</svg>
