<svg width="36" height="36" viewBox="0 0 36 36" fill="none" xmlns="http://www.w3.org/2000/svg">
<g clip-path="url(#clip0_2024_4877)">
<path fill-rule="evenodd" clip-rule="evenodd" d="M0.0012207 0H24.8231V15.5943C24.1993 15.7061 23.7241 16.2506 23.7241 16.9051V17.2665H20.6713V16.9051C20.6713 16.1701 20.0725 15.5722 19.3363 15.5722H18.522C17.7859 15.5722 17.1869 16.1701 17.1869 16.9051V17.2665H16.3473C15.0906 17.2665 14.0681 18.223 14.0681 19.3988V35.0646C14.0681 35.3999 14.1514 35.7173 14.2991 35.9999H0.0012207V0ZM35.999 35.0646V22.7939H15.2673V35.0646C15.2673 35.5717 15.7618 35.9999 16.3472 35.9999H34.919C35.5145 35.9999 35.9989 35.5803 35.999 35.0646ZM25.0591 16.7712C24.9854 16.7712 24.9231 16.8326 24.9231 16.9052V19.2713C24.9231 19.3439 24.9854 19.4052 25.0591 19.4052H25.8732C25.947 19.4052 26.0092 19.344 26.0092 19.2713V16.9052C26.0092 16.8326 25.947 16.7712 25.8732 16.7712H25.0591ZM18.522 19.4051H19.3362C19.4099 19.4051 19.4722 19.3439 19.4722 19.2712V16.9051C19.4722 16.8325 19.4099 16.7711 19.3362 16.7711H18.522C18.4482 16.7711 18.386 16.8325 18.386 16.9051V19.2712C18.386 19.3438 18.4483 19.4051 18.522 19.4051ZM27.2084 18.4655V19.2712C27.2084 20.0062 26.6094 20.6042 25.8733 20.6042H25.0592C24.3229 20.6042 23.724 20.0062 23.724 19.2712V18.4655H20.6713V19.2712C20.6713 20.0062 20.0723 20.6042 19.3362 20.6042H18.522C17.7859 20.6042 17.1869 20.0062 17.1869 19.2712V18.4655H16.3473C15.7518 18.4655 15.2673 18.8843 15.2673 19.3988V21.5948H35.9989V19.3988C35.9989 18.8843 35.5144 18.4655 34.9191 18.4655H33.7457V19.2712C33.7457 20.0062 33.1467 20.6042 32.4106 20.6042H31.5963C30.8602 20.6042 30.2613 20.0062 30.2613 19.2712V18.4655H27.2084ZM31.4603 19.2712C31.4603 19.3439 31.5226 19.4051 31.5963 19.4051H32.4105C32.4843 19.4051 32.5466 19.3439 32.5466 19.2712V16.9051C32.5466 16.8325 32.4843 16.7711 32.4105 16.7711H31.5963C31.5225 16.7711 31.4603 16.8325 31.4603 16.9051V19.2712ZM32.3042 32.962V31.0849H30.425V32.962H32.3042ZM32.9037 29.8858C33.2348 29.8858 33.5032 30.1542 33.5032 30.4853V33.5616C33.5032 33.8927 33.2348 34.1611 32.9037 34.1611H29.8254C29.4943 34.1611 29.2258 33.8927 29.2258 33.5616V30.4853C29.2258 30.1542 29.4942 29.8858 29.8254 29.8858H32.9037ZM32.3042 27.7089V25.8318H30.425V27.7089H32.3042ZM32.9037 24.6327C33.2348 24.6327 33.5032 24.9012 33.5032 25.2323V28.3085C33.5032 28.6396 33.2348 28.9081 32.9037 28.9081H29.8254C29.4943 28.9081 29.2258 28.6397 29.2258 28.3085V25.2323C29.2258 24.9012 29.4942 24.6327 29.8254 24.6327H32.9037ZM26.5196 32.962V31.0849H24.6425V32.962H26.5196ZM27.1191 29.8858C27.4502 29.8858 27.7186 30.1542 27.7186 30.4853V33.5616C27.7186 33.8927 27.4502 34.1611 27.1191 34.1611H24.0429C23.7118 34.1611 23.4433 33.8927 23.4433 33.5616V30.4853C23.4433 30.1542 23.7117 29.8858 24.0429 29.8858H27.1191ZM20.8435 32.962V31.0849H18.9641V32.962H20.8435ZM21.4429 29.8858C21.774 29.8858 22.0424 30.1542 22.0424 30.4853V33.5616C22.0424 33.8927 21.774 34.1611 21.4429 34.1611H18.3646C18.0335 34.1611 17.765 33.8927 17.765 33.5616V30.4853C17.765 30.1542 18.0334 29.8858 18.3646 29.8858H21.4429ZM26.5196 27.7089V25.8318H24.6425V27.7089H26.5196ZM27.1191 24.6327C27.4502 24.6327 27.7186 24.9012 27.7186 25.2323V28.3085C27.7186 28.6396 27.4502 28.9081 27.1191 28.9081H24.0429C23.7118 28.9081 23.4433 28.6397 23.4433 28.3085V25.2323C23.4433 24.9012 23.7117 24.6327 24.0429 24.6327H27.1191ZM20.8435 27.7089V25.8318H18.9641V27.7089H20.8435ZM22.0425 25.2322V28.3084C22.0425 28.6395 21.774 28.908 21.443 28.908H18.3647C18.0336 28.908 17.7651 28.6396 17.7651 28.3084V25.2322C17.7651 24.9011 18.0335 24.6326 18.3647 24.6326H21.443C21.774 24.6327 22.0425 24.9012 22.0425 25.2322ZM14.6676 6.90061H22.4634C22.7945 6.90061 23.0629 6.63223 23.0629 6.30105C23.0629 5.96988 22.7944 5.7015 22.4634 5.7015H14.6676C14.3365 5.7015 14.0681 5.96988 14.0681 6.30105C14.0681 6.63223 14.3365 6.90061 14.6676 6.90061ZM14.6676 3.67987H22.4634C22.7945 3.67987 23.0629 3.41149 23.0629 3.08039C23.0629 2.74929 22.7944 2.48084 22.4634 2.48084H14.6676C14.3365 2.48084 14.0681 2.74922 14.0681 3.08039C14.0681 3.41149 14.3365 3.67987 14.6676 3.67987ZM10.8444 27.6113L7.95054 30.2361L6.98733 29.2745C6.75298 29.0405 6.37329 29.0407 6.1395 29.275C5.9055 29.5093 5.90578 29.889 6.14013 30.1229L7.50708 31.4878C7.6238 31.6043 7.77715 31.6631 7.93078 31.6631C8.07478 31.6631 8.21899 31.6115 8.33346 31.5077L9.44869 30.4961V32.3199H3.68103V27.0776H10.0482C10.3793 27.0776 10.6477 26.8091 10.6477 26.478C10.6477 26.1469 10.3793 25.8784 10.0482 25.8784H3.08147C2.75037 25.8784 2.48192 26.1468 2.48192 26.478V32.9195C2.48192 33.2506 2.75037 33.519 3.08147 33.519H10.0482C10.3793 33.519 10.6477 33.2506 10.6477 32.9195V29.4085L11.6498 28.4996C11.8951 28.2772 11.9136 27.898 11.6912 27.6528C11.4686 27.4074 11.0894 27.3889 10.8444 27.6113ZM3.08147 21.8202H10.0482C10.3793 21.8202 10.6477 21.5518 10.6477 21.2207V17.7103L11.6501 16.8005C11.8953 16.5779 11.9136 16.1988 11.691 15.9537C11.4683 15.7084 11.0893 15.6902 10.8442 15.9128L7.95068 18.5391L6.98761 17.576C6.75354 17.3419 6.37385 17.3419 6.13978 17.576C5.90564 17.8102 5.90564 18.1897 6.13978 18.4238L7.50673 19.7909C7.62345 19.9077 7.77694 19.9665 7.93071 19.9665C8.07478 19.9665 8.21906 19.9149 8.3336 19.8109L9.44862 18.7988V20.6213H3.68103V15.3787H10.0482C10.3793 15.3787 10.6477 15.1104 10.6477 14.7792C10.6477 14.4481 10.3793 14.1796 10.0482 14.1796H3.08147C2.75037 14.1796 2.48192 14.448 2.48192 14.7792V21.2207C2.48199 21.5518 2.75037 21.8202 3.08147 21.8202ZM3.08147 10.1235H10.0482C10.3793 10.1235 10.6477 9.85507 10.6477 9.5239V6.01151L11.6501 5.10173C11.8953 4.87913 11.9136 4.5 11.691 4.25489C11.4683 4.00964 11.0893 3.99143 10.8442 4.21397L7.9504 6.84056L6.98733 5.87904C6.75298 5.64511 6.37329 5.64539 6.1395 5.87974C5.9055 6.11402 5.90578 6.49371 6.14013 6.72757L7.50708 8.09248C7.6238 8.20898 7.77715 8.26777 7.93078 8.26777C8.07485 8.26777 8.21913 8.21609 8.33367 8.11216L9.44869 7.10009V8.92463H3.68103V3.68002H10.0482C10.3793 3.68002 10.6477 3.41163 10.6477 3.08053C10.6477 2.74943 10.3793 2.48098 10.0482 2.48098H3.08147C2.75037 2.48098 2.48192 2.74936 2.48192 3.08053V9.52411C2.48199 9.85507 2.75037 10.1235 3.08147 10.1235Z" fill="#221D5E"/>
</g>
<defs>
<clipPath id="clip0_2024_4877">
<rect width="36" height="36" fill="white"/>
</clipPath>
</defs>
</svg>
