<svg width="36" height="36" viewBox="0 0 36 36" fill="none" xmlns="http://www.w3.org/2000/svg">
<g id="fi_10726052">
<path id="Vector" d="M26.4004 3V4.7508L28.8004 6.228V3H26.4004Z" fill="#221D5E"/>
<path id="Vector_2" d="M34.2291 10.9774L18.6291 1.37742C18.2415 1.13982 17.7591 1.13982 17.3709 1.37742L1.77148 10.9774C1.20868 11.3242 1.03228 12.0652 1.37848 12.6286C1.72528 13.1914 2.46568 13.366 3.03028 13.021L17.6859 4.00242C17.7825 3.94302 17.8917 3.91362 18.0003 3.91362C18.1089 3.91362 18.2181 3.94362 18.3147 4.00242L32.9715 13.0216C33.5217 13.36 34.2855 13.174 34.6221 12.6292C34.9689 12.0658 34.7925 11.3242 34.2291 10.9774Z" fill="#221D5E"/>
<path id="Vector_3" d="M18 5.21995L3.6582 14.0459C3.4488 14.1744 3.2262 14.2548 3 14.313V28.8018C3 29.133 3.2688 29.4018 3.6 29.4018H7.4172C7.6446 29.0922 7.9098 28.8054 8.2254 28.5611C9.1344 27.8532 10.329 27.5658 11.4756 27.7716L14.9634 24.2838L10.41 19.7304L9.3474 19.3734C9.1044 19.3001 8.874 19.1346 8.7168 18.9114L6.8358 16.2713C6.4782 15.7788 6.5292 15.096 6.9606 14.6525L8.0436 13.5695C8.4924 13.1321 9.1752 13.0824 9.6726 13.4418L12.3114 15.3222C12.531 15.477 12.6972 15.7074 12.7758 15.9684L13.1268 17.0124L17.6796 21.5652L21.1674 18.0726C20.9646 16.9296 21.2496 15.7367 21.9576 14.8217C23.0646 13.3997 24.9438 12.8453 26.6328 13.4405C26.8566 13.5107 27.0396 13.707 27.1008 13.959C27.1626 14.2104 27.0888 14.478 26.9094 14.658L25.1544 16.4082L26.1894 17.439L27.9432 15.6905C28.125 15.5087 28.3962 15.4332 28.6488 15.4998C28.9014 15.5634 29.0958 15.7494 29.1696 15.996C29.6928 17.4636 29.3088 19.1592 28.1826 20.2854C27.222 21.2466 25.8492 21.669 24.5274 21.4338L21.0354 24.9209L21.6288 25.5144L22.1406 25.0026C22.8906 24.2616 24.1068 24.2615 24.8556 24.9995C25.2294 25.3734 25.428 25.8617 25.4178 26.3778C25.4244 26.6658 25.353 26.9616 25.2156 27.2304L27.3828 29.4012H32.3988C32.73 29.4012 32.9988 29.1324 32.9988 28.8012V14.3219C32.7684 14.2625 32.5458 14.1713 32.3406 14.0448L17.9988 5.21875L18 5.21995Z" fill="#221D5E"/>
<path id="Vector_4" d="M12.0357 17.5272L11.6337 16.3314L8.9733 14.4156C8.9373 14.391 8.9061 14.4048 8.8869 14.4234L7.8159 15.4944C7.8033 15.507 7.7895 15.5406 7.8111 15.5706L9.6975 18.2178L10.9263 18.6366C11.0139 18.6666 11.0937 18.7158 11.1597 18.7812L19.7619 27.3834L20.7825 26.3628L12.1803 17.7606C12.1149 17.6952 12.0657 17.6154 12.0357 17.5272Z" fill="#221D5E"/>
<path id="Vector_5" d="M18.5303 22.4134L20.1887 24.0718L23.9147 20.3512C24.0665 20.1994 24.2885 20.14 24.4955 20.197C25.5059 20.4682 26.5943 20.1796 27.3365 19.4362C27.9479 18.8248 28.2509 17.9782 28.1921 17.1382L26.9285 18.3988C26.5565 18.784 25.8365 18.7918 25.4489 18.3916L24.1997 17.1484C23.7977 16.7458 23.7947 16.0852 24.1925 15.6748L25.4573 14.413C24.4841 14.3476 23.5259 14.7616 22.9079 15.5566C22.3565 16.2694 22.1687 17.2228 22.4057 18.1078C22.4615 18.3148 22.4021 18.5356 22.2509 18.6874L18.5303 22.4134Z" fill="#221D5E"/>
<path id="Vector_6" d="M11.5132 29.0043C10.6234 28.7685 9.66942 28.9557 8.96142 29.5065C8.16102 30.1263 7.74402 31.0869 7.80942 32.0547L9.06702 30.7971C9.48402 30.3915 10.1452 30.3963 10.546 30.7971L11.8024 32.0535C12.2092 32.4597 12.2092 33.1209 11.8024 33.5271L10.5418 34.7877C11.3944 34.8471 12.2284 34.5417 12.835 33.9351C13.5766 33.1935 13.8682 32.1021 13.5952 31.0875C13.5394 30.8799 13.5988 30.6591 13.7506 30.5073L17.4706 26.7873L15.8122 25.1289L12.0922 28.8489C11.941 29.0007 11.719 29.0613 11.5132 29.0043Z" fill="#221D5E"/>
<path id="Vector_7" d="M24.2188 26.3743C24.223 26.1631 24.1492 25.9855 24.0112 25.8475C23.7304 25.5721 23.2696 25.5703 22.9876 25.8505L19.2496 29.5879C19.1152 29.7217 19.042 29.9011 19.042 30.0955C19.042 30.2353 19.078 30.4375 19.2496 30.6091C19.531 30.8905 19.99 30.8905 20.2714 30.6091C20.3884 30.4921 20.542 30.4333 20.6956 30.4333C20.8492 30.4333 21.0028 30.4921 21.1192 30.6085L24.7114 34.1947C25.486 34.9741 26.8252 34.9723 27.5956 34.1965C27.5968 34.1965 27.598 34.1947 27.5986 34.1935C27.9862 33.8083 28.1998 33.2971 28.1998 32.7529C28.1998 32.2087 27.9868 31.6969 27.5986 31.3123L24.0112 27.7177C23.7772 27.4831 23.7772 27.1045 24.0112 26.8699C24.1486 26.7325 24.223 26.5567 24.2188 26.3749V26.3743Z" fill="#221D5E"/>
<path id="Vector_8" d="M17.9753 29.4007C18.0701 29.1565 18.2117 28.9315 18.4019 28.7419L18.9131 28.2307L18.3191 27.6367L16.5557 29.4001H17.9759L17.9753 29.4007Z" fill="#221D5E"/>
</g>
</svg>
