<svg width="36" height="36" viewBox="0 0 36 36" fill="none" xmlns="http://www.w3.org/2000/svg">
<g id="fi_16954127">
<g id="Group">
<path id="Vector" d="M12.1815 15.4713V11.2392C12.1815 11.0897 12.3027 10.9685 12.4522 10.9685H15.7208V3.28906H2.95898V29.4299H15.7286V17.5117H14.222C13.0968 17.5117 12.1815 16.5964 12.1815 15.4713Z" fill="#221D5E"/>
<path id="Vector_2" d="M29.0323 15.2301V3.28906H16.2627V10.9685H16.5937C16.5894 10.9412 16.5865 10.9134 16.5865 10.8849C16.5865 10.5909 16.8249 10.3526 17.1189 10.3526C17.4129 10.3526 17.6513 10.5909 17.6513 10.8849C17.6513 10.9134 17.6484 10.9412 17.6441 10.9685H19.0474C19.0431 10.9412 19.0402 10.9134 19.0402 10.8849C19.0402 10.5909 19.2786 10.3526 19.5726 10.3526C19.8666 10.3526 20.105 10.5909 20.105 10.8849C20.105 10.9134 20.1021 10.9412 20.0978 10.9685H21.5011C21.4968 10.9412 21.4939 10.9134 21.4939 10.8849C21.4939 10.5909 21.7323 10.3526 22.0263 10.3526C22.3203 10.3526 22.5587 10.5909 22.5587 10.8849C22.5587 10.9134 22.5558 10.9412 22.5515 10.9685H23.9548C23.9505 10.9412 23.9476 10.9134 23.9476 10.8849C23.9476 10.5909 24.186 10.3526 24.48 10.3526C24.774 10.3526 25.0124 10.5909 25.0124 10.8849C25.0124 10.9134 25.0095 10.9412 25.0052 10.9685H25.7636C25.9131 10.9685 26.0343 11.0897 26.0343 11.2392V12.1834C26.1589 12.2808 26.2392 12.4321 26.2392 12.6025C26.2392 12.7729 26.1589 12.9242 26.0343 13.0217V15.4714C26.0343 16.2611 26.6486 16.9085 27.4241 16.9648C28.3222 16.897 29.0323 16.1451 29.0323 15.2301ZM17.1189 7.98214C16.8249 7.98214 16.5865 7.74378 16.5865 7.44975C16.5865 7.15572 16.8249 6.91737 17.1189 6.91737C17.4129 6.91737 17.6513 7.15573 17.6513 7.44975C17.6513 7.74377 17.4129 7.98214 17.1189 7.98214ZM17.1189 4.54697C16.8249 4.54697 16.5865 4.30861 16.5865 4.01458C16.5865 3.72054 16.8249 3.4822 17.1189 3.4822C17.4129 3.4822 17.6513 3.72054 17.6513 4.01458C17.6513 4.30861 17.4129 4.54697 17.1189 4.54697ZM18.3458 9.69973C18.0517 9.69973 17.8134 9.46138 17.8134 9.16734C17.8134 8.87331 18.0518 8.63496 18.3458 8.63496C18.6398 8.63496 18.8782 8.87332 18.8782 9.16734C18.8782 9.46136 18.6398 9.69973 18.3458 9.69973ZM18.3458 6.26456C18.0517 6.26456 17.8134 6.0262 17.8134 5.73217C17.8134 5.43814 18.0518 5.19978 18.3458 5.19978C18.6398 5.19978 18.8782 5.43814 18.8782 5.73217C18.8782 6.0262 18.6398 6.26456 18.3458 6.26456ZM19.5726 7.98214C19.2786 7.98214 19.0403 7.74378 19.0403 7.44975C19.0403 7.15572 19.2786 6.91737 19.5726 6.91737C19.8666 6.91737 20.105 7.15573 20.105 7.44975C20.105 7.74377 19.8666 7.98214 19.5726 7.98214ZM19.5726 4.54697C19.2786 4.54697 19.0403 4.30861 19.0403 4.01458C19.0403 3.72054 19.2786 3.4822 19.5726 3.4822C19.8666 3.4822 20.105 3.72054 20.105 4.01458C20.105 4.30861 19.8666 4.54697 19.5726 4.54697ZM20.7995 9.69973C20.5055 9.69973 20.2671 9.46138 20.2671 9.16734C20.2671 8.87331 20.5055 8.63496 20.7995 8.63496C21.0935 8.63496 21.3319 8.87332 21.3319 9.16734C21.3319 9.46136 21.0935 9.69973 20.7995 9.69973ZM20.7995 6.26456C20.5055 6.26456 20.2671 6.0262 20.2671 5.73217C20.2671 5.43814 20.5055 5.19978 20.7995 5.19978C21.0935 5.19978 21.3319 5.43814 21.3319 5.73217C21.3319 6.0262 21.0935 6.26456 20.7995 6.26456ZM22.0263 7.98214C21.7323 7.98214 21.494 7.74378 21.494 7.44975C21.494 7.15572 21.7323 6.91737 22.0263 6.91737C22.3204 6.91737 22.5587 7.15573 22.5587 7.44975C22.5587 7.74377 22.3204 7.98214 22.0263 7.98214ZM22.0263 4.54697C21.7323 4.54697 21.494 4.30861 21.494 4.01458C21.494 3.72054 21.7323 3.4822 22.0263 3.4822C22.3204 3.4822 22.5587 3.72054 22.5587 4.01458C22.5587 4.30861 22.3204 4.54697 22.0263 4.54697ZM23.2532 9.69973C22.9592 9.69973 22.7208 9.46138 22.7208 9.16734C22.7208 8.87331 22.9592 8.63496 23.2532 8.63496C23.5472 8.63496 23.7856 8.87332 23.7856 9.16734C23.7856 9.46136 23.5472 9.69973 23.2532 9.69973ZM23.2532 6.26456C22.9592 6.26456 22.7208 6.0262 22.7208 5.73217C22.7208 5.43814 22.9592 5.19978 23.2532 5.19978C23.5472 5.19978 23.7856 5.43814 23.7856 5.73217C23.7856 6.0262 23.5472 6.26456 23.2532 6.26456ZM28.1606 5.19978C28.4546 5.19978 28.693 5.43814 28.693 5.73217C28.693 6.0262 28.4546 6.26456 28.1606 6.26456C27.8666 6.26456 27.6282 6.0262 27.6282 5.73217C27.6282 5.43814 27.8666 5.19978 28.1606 5.19978ZM28.1606 8.63496C28.4546 8.63496 28.693 8.87332 28.693 9.16734C28.693 9.46136 28.4546 9.69973 28.1606 9.69973C27.8666 9.69973 27.6282 9.46138 27.6282 9.16734C27.6282 8.87331 27.8666 8.63496 28.1606 8.63496ZM28.1606 12.0702C28.4546 12.0702 28.693 12.3085 28.693 12.6025C28.693 12.8965 28.4546 13.1349 28.1606 13.1349C27.8666 13.1349 27.6282 12.8965 27.6282 12.6025C27.6282 12.3085 27.8666 12.0702 28.1606 12.0702ZM28.1606 15.428C28.4546 15.428 28.693 15.6663 28.693 15.9604C28.693 16.2544 28.4546 16.4928 28.1606 16.4928C27.8666 16.4928 27.6282 16.2544 27.6282 15.9604C27.6282 15.6664 27.8666 15.428 28.1606 15.428ZM26.9337 3.48218C27.2278 3.48218 27.4661 3.72053 27.4661 4.01456C27.4661 4.30859 27.2278 4.54695 26.9337 4.54695C26.6397 4.54695 26.4014 4.30859 26.4014 4.01456C26.4014 3.72053 26.6397 3.48218 26.9337 3.48218ZM26.9337 6.91736C27.2278 6.91736 27.4661 7.15572 27.4661 7.44973C27.4661 7.74375 27.2278 7.98213 26.9337 7.98213C26.6397 7.98213 26.4014 7.74377 26.4014 7.44973C26.4014 7.1557 26.6397 6.91736 26.9337 6.91736ZM26.9337 10.3525C27.2278 10.3525 27.4661 10.5909 27.4661 10.8849C27.4661 11.1789 27.2278 11.4173 26.9337 11.4173C26.6397 11.4173 26.4014 11.1789 26.4014 10.8849C26.4014 10.5909 26.6397 10.3525 26.9337 10.3525ZM24.48 7.98213C24.186 7.98213 23.9477 7.74377 23.9477 7.44973C23.9477 7.1557 24.186 6.91736 24.48 6.91736C24.7741 6.91736 25.0124 7.15572 25.0124 7.44973C25.0124 7.74375 24.7741 7.98213 24.48 7.98213ZM24.48 4.54695C24.186 4.54695 23.9477 4.30859 23.9477 4.01456C23.9477 3.72053 24.186 3.48218 24.48 3.48218C24.7741 3.48218 25.0124 3.72053 25.0124 4.01456C25.0124 4.30859 24.7741 4.54695 24.48 4.54695ZM25.7069 9.69972C25.4129 9.69972 25.1745 9.46136 25.1745 9.16733C25.1745 8.8733 25.4129 8.63495 25.7069 8.63495C26.0009 8.63495 26.2393 8.87331 26.2393 9.16733C26.2393 9.46135 26.0009 9.69972 25.7069 9.69972ZM25.7069 6.26455C25.4129 6.26455 25.1745 6.02619 25.1745 5.73215C25.1745 5.43812 25.4129 5.19976 25.7069 5.19976C26.0009 5.19976 26.2393 5.43812 26.2393 5.73215C26.2393 6.02619 26.0009 6.26455 25.7069 6.26455ZM26.9337 14.8525C26.6397 14.8525 26.4014 14.6141 26.4014 14.3201C26.4014 14.0261 26.6397 13.7877 26.9337 13.7877C27.2278 13.7877 27.4661 14.0261 27.4661 14.3201C27.4661 14.6141 27.2278 14.8525 26.9337 14.8525Z" fill="#221D5E"/>
<path id="Vector_3" d="M32.8314 19.1834C32.5474 18.5747 31.8212 18.3106 31.2124 18.5947L30.9936 18.6969L31.288 19.3277L31.5068 19.2255C31.7676 19.1037 32.0789 19.217 32.2007 19.4778L32.6257 20.3881C32.7348 20.6219 32.6542 20.9047 32.4381 21.0459L26.748 24.762C26.2438 25.0913 26.0556 25.7513 26.3103 26.297L26.9386 27.6432L27.5694 27.3488L26.9411 26.0025C26.832 25.7687 26.9126 25.4859 27.1287 25.3447L32.8187 21.6287C33.3229 21.2994 33.5111 20.6395 33.2564 20.0937L32.8314 19.1834Z" fill="#221D5E"/>
<path id="Vector_4" d="M28.4796 32.6939C28.6642 33.0895 29.0564 33.3219 29.4658 33.3219C29.6198 33.3219 29.7763 33.289 29.9251 33.2195C30.4693 32.9655 30.7047 32.3184 30.4507 31.7741L28.4681 27.5273L26.4971 28.4472L28.4796 32.6939Z" fill="#221D5E"/>
<path id="Vector_5" d="M25.4922 15.4693V11.5078H12.7227V15.4693C12.7227 16.2958 13.3951 16.9683 14.2217 16.9683H26.1497C25.7456 16.5952 25.4922 16.0613 25.4922 15.4693Z" fill="#221D5E"/>
<path id="Vector_6" d="M20.7499 26.0701L30.4451 21.5455C31.054 21.2456 31.2738 20.4836 31.0058 20.0035L30.2722 18.4316C29.9068 17.8044 29.3926 17.6179 28.7303 17.871L19.035 22.3956C18.4544 22.6666 18.2034 23.3569 18.4744 23.9375L19.2079 25.5094C19.6056 26.1854 20.1803 26.3161 20.7499 26.0701ZM30.1507 20.9147L20.4555 25.4393C20.3932 25.4684 20.3274 25.4831 20.26 25.4831C20.0801 25.4831 19.9147 25.3779 19.8387 25.2151L19.1051 23.6432C19.0527 23.5308 19.0472 23.4048 19.0896 23.2883C19.1319 23.1718 19.2171 23.0788 19.3294 23.0264L29.0246 18.5017C29.0869 18.4727 29.1527 18.4579 29.2202 18.4579C29.4001 18.4579 29.5654 18.5632 29.6414 18.726L30.375 20.2979C30.4832 20.5298 30.3826 20.8065 30.1507 20.9147Z" fill="#221D5E"/>
</g>
</g>
</svg>
